<svg xmlns="http://www.w3.org/2000/svg" width="30.745" height="31.616" viewBox="0 0 30.745 31.616">
  <g id="Group_114" data-name="Group 114" transform="translate(-1362 -541.192)">
    <path id="search_icn" d="M28.869,30.948,20.845,22.7a11.794,11.794,0,0,1-6.831,2.182A12.285,12.285,0,0,1,1.918,12.44,12.286,12.286,0,0,1,14.014,0a12.286,12.286,0,0,1,12.1,12.44,12.61,12.61,0,0,1-2.123,7.024l8.024,8.252a2.331,2.331,0,0,1,0,3.232,2.182,2.182,0,0,1-3.142,0Zm-6.981-9.085L29.8,29.994a.9.9,0,0,0,1.288,0,.956.956,0,0,0,0-1.325l-7.907-8.132A12.333,12.333,0,0,1,21.888,21.862ZM3.229,12.44A10.953,10.953,0,0,0,14.014,23.53,10.953,10.953,0,0,0,24.8,12.44,10.954,10.954,0,0,0,14.014,1.348,10.954,10.954,0,0,0,3.229,12.44ZM5.79,13.78a.679.679,0,0,1-.683-.652A9.01,9.01,0,0,1,7.817,6.34,9.278,9.278,0,0,1,14.7,3.668a.677.677,0,0,1,.661.7.658.658,0,0,1-.706.651A7.9,7.9,0,0,0,8.784,7.293a7.685,7.685,0,0,0-2.311,5.791.679.679,0,0,1-.661.7Z" transform="translate(1360.082 541.192)" fill="#fff"/>
  </g>
</svg>
