<svg xmlns="http://www.w3.org/2000/svg" width="331.92" height="250.703" viewBox="0 0 331.92 250.703">
  <g id="Group_111" data-name="Group 111" transform="translate(-706.114 -263.297)">
    <path id="Path_32" data-name="Path 32" d="M861.2,559s81.067-5.746,127.215,11.835S1083.482,559,1083.482,559L1072.5,608.276s-33.808,49.022-43.95,50.712-69.306,10.987-70.151,8.452-59.164-21.975-59.164-21.975l-32.963-53.247Z" transform="translate(-105 -161)" fill="#cecece"/>
    <path id="Path_33" data-name="Path 33" d="M1083.482,559s-52.221,13.156-97.2,33.217S861.2,559,861.2,559l10.987,49.276s33.808,49.022,43.95,50.712,69.306,10.987,70.151,8.452,59.164-21.975,59.164-21.975l32.963-53.247Z" transform="translate(-105 -181)" fill="#cecece" opacity="0.66"/>
    <g id="Path_34" data-name="Path 34" transform="translate(752 282)" fill="none">
      <path d="M116,0A116,116,0,1,1,0,116,116,116,0,0,1,116,0Z" stroke="none"/>
      <path d="M 116 11 C 58.10279846191406 11 11 58.10279846191406 11 116 C 11 173.897216796875 58.10279846191406 221 116 221 C 173.897216796875 221 221 173.897216796875 221 116 C 221 58.10279846191406 173.897216796875 11 116 11 M 116 0 C 180.0650329589844 0 232 51.93495178222656 232 116 C 232 180.0650329589844 180.0650329589844 232 116 232 C 51.93495178222656 232 0 180.0650329589844 0 116 C 0 51.93495178222656 51.93495178222656 0 116 0 Z" stroke="none" fill="#0a0a0a"/>
    </g>
    <path id="Path_35" data-name="Path 35" d="M57.02,62.52V43.62a1.293,1.293,0,0,0-1.29-1.29H32.93a1.293,1.293,0,0,0-1.29,1.29V58.46a7.189,7.189,0,0,0-4.65-1.69,7.26,7.26,0,1,0,7.26,7.26,7.592,7.592,0,0,0-.08-1.07,1.209,1.209,0,0,0,.06-.38V44.91H54.44V58.44a7.257,7.257,0,1,0,2.62,5.58,7.111,7.111,0,0,0-.09-1.14A1.361,1.361,0,0,0,57.02,62.52Z" transform="translate(956 242.89)"/>
    <path id="Path_38" data-name="Path 38" d="M50.186,58.82V43.384a1.056,1.056,0,0,0-1.054-1.054H30.511a1.056,1.056,0,0,0-1.054,1.054V55.5a5.871,5.871,0,0,0-3.8-1.38,5.93,5.93,0,1,0,5.929,5.93,6.2,6.2,0,0,0-.065-.874.987.987,0,0,0,.049-.31V44.437H48.079V55.488a5.928,5.928,0,1,0,2.14,4.557,5.809,5.809,0,0,0-.074-.931A1.112,1.112,0,0,0,50.186,58.82Z" transform="translate(686.384 292.976)"/>
    <path id="Path_36" data-name="Path 36" d="M19.98,7.59a4.305,4.305,0,0,0-.76-3.53C16.38.05,12.71,0,12.56,0a1.293,1.293,0,0,0-1.29,1.29V18.54a6.938,6.938,0,1,0,2.61,5.42,7.26,7.26,0,0,0-.06-.93,1.358,1.358,0,0,0,.03-.29V2.89a7.155,7.155,0,0,1,3.26,2.66c.71,1,.39,1.76-.55,3.38a6.963,6.963,0,0,0-1.18,3.04,4.189,4.189,0,0,0,2.02,3.66,1.294,1.294,0,0,0,1.54-2.08c-1.39-1.03-1.17-1.54-.13-3.32A9.9,9.9,0,0,0,19.98,7.59Z" transform="translate(1002.431 276.737) rotate(-42)"/>
    <path id="Path_37" data-name="Path 37" d="M16.319,6.2A3.516,3.516,0,0,0,15.7,3.316,7.167,7.167,0,0,0,10.258,0,1.056,1.056,0,0,0,9.2,1.054V15.142a5.666,5.666,0,1,0,2.132,4.427,5.929,5.929,0,0,0-.049-.76,1.109,1.109,0,0,0,.024-.237V2.36a5.843,5.843,0,0,1,2.663,2.173c.58.817.319,1.437-.449,2.761a5.687,5.687,0,0,0-.964,2.483,3.421,3.421,0,0,0,1.65,2.989,1.057,1.057,0,0,0,1.258-1.7c-1.135-.841-.956-1.258-.106-2.712A8.084,8.084,0,0,0,16.319,6.2Z" transform="translate(727.922 328.377) rotate(-42)"/>
    <g id="Ellipse_9" data-name="Ellipse 9" transform="translate(752 300)" fill="#fff" stroke="#0a0a0a" stroke-width="1">
      <circle cx="5" cy="5" r="5" stroke="none"/>
      <circle cx="5" cy="5" r="4.5" fill="none"/>
    </g>
    <rect id="Rectangle_19" data-name="Rectangle 19" width="1" height="3" rx="0.5" transform="translate(757 296)" fill="#0a0a0a"/>
    <rect id="Rectangle_20" data-name="Rectangle 20" width="1" height="3" rx="0.5" transform="translate(758 311)" fill="#0a0a0a"/>
    <g id="Ellipse_9-2" data-name="Ellipse 9" transform="matrix(0.978, 0.208, -0.208, 0.978, 774.149, 288.07)" fill="#fff" stroke="#0a0a0a" stroke-width="1">
      <circle cx="5" cy="5" r="5" stroke="none"/>
      <circle cx="5" cy="5" r="4.5" fill="none"/>
    </g>
    <rect id="Rectangle_19-2" data-name="Rectangle 19" width="1" height="3" rx="0.5" transform="matrix(0.978, 0.208, -0.208, 0.978, 779.872, 285.197)" fill="#0a0a0a"/>
    <rect id="Rectangle_20-2" data-name="Rectangle 20" width="1" height="3" rx="0.5" transform="matrix(0.978, 0.208, -0.208, 0.978, 777.731, 300.077)" fill="#0a0a0a"/>
    <path id="Path_39" data-name="Path 39" d="M0,0H194.111V194.111H0Z" transform="translate(778 300.795)" fill="none"/>
    <path id="Path_40" data-name="Path 40" d="M48.692,91.332,14.723,57.363,3.4,68.686l45.292,45.292,97.055-97.055L134.425,5.6Z" transform="translate(802.099 340.487)"/>
  </g>
</svg>
